<?xml version="1.0" encoding="utf-8"?>
<!-- Generator: Adobe Illustrator 19.2.1, SVG Export Plug-In . SVG Version: 6.00 Build 0)  -->
<svg version="1.1" id="layer" xmlns="http://www.w3.org/2000/svg" xmlns:xlink="http://www.w3.org/1999/xlink" x="0px" y="0px"
	 viewBox="0 0 652 652" style="enable-background:new 0 0 652 652;" xml:space="preserve">
<style type="text/css">
	.st0{fill:#A0001E;}
	.st1{fill:#20292D;}
</style>
<path class="st0" d="M89,265.9l-39.9,71.4h22.5l29.3-53l29.3,53h22.5l-39.9-71.4H89z"/>
<path class="st0" d="M20.6,234.9v117.2l80.1,56.9l80.5-57.2V234.9H20.6z M100.7,386.2l-61.3-43.5v-89.5h123.1v89.2L100.7,386.2z"/>
<g>
	<path class="st1" d="M244.6,326.4c0,5.5,2.5,6.9,8.9,6.9h4.4c7.8,0,11.2-4.9,18.6-18.1h3.6l-3.6,22.1h-55v-3.6
		c7.1-0.8,8.2-1.4,8.2-7v-50.4c0-5.6-1-6.2-8.2-7v-3.6h31.3v3.6c-7.1,0.8-8.2,1.4-8.2,7V326.4z M331.5,326.1c0,3.5,0.7,5.7,3.4,5.7
		c1.5,0,3-0.5,4.1-1l0.6,2.2c-3,3.5-6.8,5.4-11.6,5.4c-5.5,0-9.2-3.4-10.2-9c-3.3,4.3-8.6,8.8-15.9,8.8c-8.3,0-13.8-5-13.8-13.2
		c0-8.8,6.3-12.3,14-15.2l15.4-5.6v-8.7c0-5.8-1.9-10-7.2-10c-4.9,0-6.8,3.7-6.8,8.6c0,2,0.3,4.1,0.8,6.3l-8.5,1.1
		c-2.8-0.9-4.5-3.1-4.5-6.4c0-8.5,8.8-12.9,20.1-12.9c13.1,0,20.2,4.8,20.2,16.7L331.5,326.1L331.5,326.1z M317.4,327v-19.1
		l-8.8,3.6c-4.3,1.6-6.9,4-6.9,9.7c0,5.3,2.4,9.1,7.9,9.1C312.5,330.3,314.5,329.1,317.4,327 M414.7,299.7c0-5.8-2-8.8-7.3-8.8
		c-4.1,0-7.3,1.9-10.5,4.3v34.4c0,3.6,1.3,4.2,6,4.5v3.4h-26.3V334c4.8-0.3,6.1-0.9,6.1-4.5v-29.9c0-5.8-2-8.8-7.3-8.8
		c-4.1,0-7.3,1.9-10.6,4.2v34.5c0,3.6,1.4,4.2,6.1,4.5v3.4h-26.6V334c4.8-0.3,6.4-0.9,6.4-4.5v-36.1l-6.1-3.6v-1.9l18.3-5.6h2.3
		l-0.4,10.1c4.3-5.5,9.7-10.1,18.3-10.1c7.4,0,11.9,3.2,13.3,10.3c4.3-5.4,10.2-10.3,18.7-10.3c9.4,0,14,5.6,14,16.4v30.8
		c0,3.6,1.6,4.2,6.3,4.5v3.4h-26.5V334c4.7-0.3,6-0.9,6-4.5L414.7,299.7L414.7,299.7z M439.2,264.6v-2.1l18.1-4.9h2.2v34.4
		c3.4-5.1,9-9.6,17.1-9.6c12.4,0,20.3,9.1,20.3,24.8c0,20-12.3,31.3-28.1,31.3c-9,0-17.7-2.3-23.6-7.1v-63.5
		C445.3,267.7,439.2,264.6,439.2,264.6z M482.6,312.1c0-12.5-4.6-21.2-14.2-21.2c-3.4,0-6.6,1.4-9,3.6v28.5c0,7.8,3.1,11.7,9.3,11.7
		C477.4,334.6,482.6,324.7,482.6,312.1 M535.6,264.6v-2.1l18.1-4.9h2.2v69.1c0,3.5,0.2,4.6,4.1,4.9l2.5,0.2v3.1l-18.6,3.7h-2.7
		l0.4-9.5c-4.1,5.8-9.3,9.5-16.4,9.5c-12.3,0-20.6-10-20.6-25.5c0-19.3,11.4-30.4,26-30.4c4.7,0,8.6,1.3,11,3.6v-18.4
		C541.7,267.7,535.6,264.6,535.6,264.6z M518.7,308c0,12.4,5.1,21.7,14.4,21.7c3.5,0,6.3-1.1,8.7-3.3v-26.9c0-8-3.4-12.6-9.5-12.6
		C523.7,286.9,518.7,295.3,518.7,308 M612.5,326.1c0,3.5,0.7,5.7,3.4,5.7c1.5,0,3-0.5,4.1-1l0.6,2.2c-3,3.5-6.8,5.4-11.6,5.4
		c-5.5,0-9.2-3.4-10.2-9c-3.3,4.3-8.6,8.8-15.9,8.8c-8.3,0-13.8-5-13.8-13.2c0-8.8,6.3-12.3,14-15.2l15.4-5.6v-8.7
		c0-5.8-1.9-10-7.2-10c-4.9,0-6.8,3.7-6.8,8.6c0,2,0.3,4.1,0.8,6.3l-8.5,1.1c-2.8-0.9-4.5-3.1-4.5-6.4c0-8.5,8.8-12.9,20.1-12.9
		c13.1,0,20.2,4.8,20.2,16.7C612.5,299,612.5,326.1,612.5,326.1z M598.4,327v-19.1l-8.8,3.6c-4.3,1.6-6.9,4-6.9,9.7
		c0,5.3,2.4,9.1,7.9,9.1C593.5,330.3,595.6,329.1,598.4,327"/>
</g>
</svg>
